# xmcd
#
# Track frame offsets:
#	150
#	32351
#	53496
#	74727
#	98206
#	115129
#	133590
#	157797
#	183480
#
# Disc length: 2908 seconds
#
# Revision: 0
# Processed by: cddbd v1.5.1PL2 Copyright (c) Steve Scherf et al.
# Submitted via: dBpowerAMP V4.0
#
DISCID=6f0b5a09
DTITLE=HARBHAN MAAN - DIL TO 
DYEAR=2004
DGENRE=Country
TTITLE0=tu
TTITLE1=ui
TTITLE2=DIL TO
TTITLE3=HFG
TTITLE4=JHF
TTITLE5=JF
TTITLE6=JF
TTITLE7=JF
TTITLE8=H
EXTD=
EXTT0=
EXTT1=
EXTT2=
EXTT3=
EXTT4=
EXTT5=
EXTT6=
EXTT7=
EXTT8=
PLAYORDER=
